HIERARCHY
ROOT Hips
{
	OFFSET 15.585500 22.159004 44.358299
	CHANNELS 6 Xposition Yposition Zposition Zrotation Xrotation Yrotation
	JOINT Chest
	{
		OFFSET -0.128500 0.160400 6.566002
		CHANNELS 6 Xposition Yposition Zposition Zrotation Xrotation Yrotation
		JOINT Chest2
		{
			OFFSET 0.000000 0.000000 3.554802
			CHANNELS 6 Xposition Yposition Zposition Zrotation Xrotation Yrotation
			JOINT Neck
			{
				OFFSET 0.000000 0.000000 8.267998
				CHANNELS 6 Xposition Yposition Zposition Zrotation Xrotation Yrotation
				JOINT Head
				{
					OFFSET 0.000000 0.000002 2.173897
					CHANNELS 6 Xposition Yposition Zposition Zrotation Xrotation Yrotation
					End Site
					{
						OFFSET 0.000000 0.000000 7.718697
					}
				}
			}
			JOINT LeftCollar
			{
				OFFSET 2.057500 0.117599 5.946301
				CHANNELS 6 Xposition Yposition Zposition Zrotation Xrotation Yrotation
				JOINT LeftShoulder
				{
					OFFSET 4.957699 0.000000 0.000000
					CHANNELS 6 Xposition Yposition Zposition Zrotation Xrotation Yrotation
					JOINT LeftElbow
					{
						OFFSET 0.000000 0.000000 -8.465500
						CHANNELS 6 Xposition Yposition Zposition Zrotation Xrotation Yrotation
						JOINT LeftWrist
						{
							OFFSET 0.000000 -0.000002 -14.594898
							CHANNELS 6 Xposition Yposition Zposition Zrotation Xrotation Yrotation
							End Site
							{
								OFFSET 0.000000 0.000000 -2.173901
							}
						}
					}
				}
			}
			JOINT RightCollar
			{
				OFFSET -3.048500 -0.728800 6.604099
				CHANNELS 6 Xposition Yposition Zposition Zrotation Xrotation Yrotation
				JOINT RightShoulder
				{
					OFFSET -3.710299 0.000000 0.000000
					CHANNELS 6 Xposition Yposition Zposition Zrotation Xrotation Yrotation
					JOINT RightElbow
					{
						OFFSET 0.000000 0.000000 -10.450901
						CHANNELS 6 Xposition Yposition Zposition Zrotation Xrotation Yrotation
						JOINT RightWrist
						{
							OFFSET 0.000000 0.000000 -12.539200
							CHANNELS 6 Xposition Yposition Zposition Zrotation Xrotation Yrotation
							End Site
							{
								OFFSET 0.000000 -0.000002 -2.173901
							}
						}
					}
				}
			}
		}
	}
	JOINT LeftHip
	{
		OFFSET 2.442599 -0.601400 -2.767502
		CHANNELS 6 Xposition Yposition Zposition Zrotation Xrotation Yrotation
		JOINT LeftKnee
		{
			OFFSET 0.000000 -0.000002 -17.033703
			CHANNELS 6 Xposition Yposition Zposition Zrotation Xrotation Yrotation
			JOINT LeftAnkle
			{
				OFFSET 0.000000 -0.000002 -19.318800
				CHANNELS 6 Xposition Yposition Zposition Zrotation Xrotation Yrotation
				End Site
				{
					OFFSET 0.000000 -8.281900 0.000000
				}
			}
		}
	}
	JOINT RightHip
	{
		OFFSET -3.126200 -0.601400 -2.283501
		CHANNELS 6 Xposition Yposition Zposition Zrotation Xrotation Yrotation
		JOINT RightKnee
		{
			OFFSET 0.000000 -0.000002 -16.919401
			CHANNELS 6 Xposition Yposition Zposition Zrotation Xrotation Yrotation
			JOINT RightAnkle
			{
				OFFSET 0.000000 -0.000002 -18.035900
				CHANNELS 6 Xposition Yposition Zposition Zrotation Xrotation Yrotation
				End Site
				{
					OFFSET 0.000000 -9.230099 0.000000
				}
			}
		}
	}
}
MOTION
Frames: 9
Frame Time: 0.041667
24.141399 39.603008 8.977695 -3.259714 4.971516 -4.292097 -0.128499 0.160393 6.566002 3.821580 -2.410498 3.312772 -0.000003 0.000002 3.554802 -2.912568 -11.248072 -1.828870 -0.000002 0.000005 8.267999 3.204999 0.058347 3.276063 0.000004 -0.000003 2.173898 1.000195 -5.686894 0.340760 2.057502 0.117602 5.946306 5.736215 -11.588815 4.892026 4.957693 0.000002 0.000000 -29.403292 -16.178888 -110.748376 -0.000003 0.000000 -8.465503 1224.455444 -175.405856 832.241830 -0.000004 0.000005 -14.594900 -932.064772 -16.820644 -348.996439 -3.048503 -0.728799 6.604099 28.275617 6.225546 7.887257 -3.710303 0.000006 -0.000007 28.357612 -19.271058 149.855880 0.000004 -0.000002 -10.450888 1201.207010 -177.283120 1258.276027 0.000002 0.000004 -12.539200 117.330082 184.553323 -213.138129 2.442596 -0.601397 -2.767503 125.453541 -7.566139 94.436600 -0.000003 -0.000006 -17.033707 -480.814172 16.989954 482.286870 0.000003 0.000000 -19.318804 -179.179453 137.871016 632.955925 -3.126198 -0.601404 -2.283504 -138.837037 -14.691732 -99.649263 -0.000002 -0.000005 -16.919397 628.691647 4.014500 -231.873994 0.000000 -0.000003 -18.035898 462.973390 39.610285 -185.126335
24.140900 39.607201 8.974693 -3.272738 4.933096 -4.265705 -0.128498 0.160399 6.566006 3.827302 -2.379817 3.299548 -0.000002 0.000002 3.554805 -2.946425 -11.225007 -1.832594 -0.000001 0.000005 8.267997 3.254858 -0.106579 3.273598 -0.000000 0.000003 2.173896 1.031260 -5.743279 0.357466 2.057502 0.117603 5.946304 5.527848 -11.527735 4.911234 4.957697 0.000004 0.000002 -29.196163 -16.101770 -110.870745 0.000000 0.000000 -8.465500 1224.891374 -175.412085 832.659947 -0.000001 -0.000001 -14.594891 -932.069580 -16.767828 -349.002504 -3.048501 -0.728799 6.604103 28.270938 6.136246 7.768271 -3.710301 0.000000 -0.000006 27.851859 -19.089916 149.533974 0.000003 -0.000000 -10.450898 1200.558196 -177.299417 1258.282475 -0.000004 0.000004 -12.539197 117.418055 184.624863 -213.024257 2.442594 -0.601396 -2.767504 125.438623 -7.700672 94.387497 -0.000003 -0.000001 -17.033707 -480.666312 16.920294 482.264248 0.000001 0.000002 -19.318806 -179.083394 137.875100 632.922266 -3.126195 -0.601402 -2.283498 -138.798555 -14.611564 -99.607026 -0.000002 -0.000001 -16.919397 629.003541 3.790375 -231.955574 0.000000 -0.000002 -18.035900 463.598434 39.612300 -185.017489
24.140303 39.611698 8.971294 -3.287250 4.901248 -4.246185 -0.128497 0.160404 6.566004 3.831379 -2.354932 3.311544 -0.000003 0.000002 3.554806 -2.992932 -11.209252 -1.840977 -0.000005 -0.000002 8.268003 3.317105 -0.302802 3.252360 -0.000001 0.000002 2.173898 1.073452 -5.793639 0.382908 2.057500 0.117597 5.946307 5.338151 -11.474406 4.870490 4.957695 0.000002 -0.000002 -29.010696 -16.145862 -110.943917 0.000000 -0.000002 -8.465495 1225.322714 -175.153999 833.066152 -0.000001 0.000005 -14.594898 -932.414259 -16.738898 -348.990756 -3.048502 -0.728799 6.604105 28.213471 5.985832 7.526229 -3.710293 0.000002 -0.000011 27.544162 -18.806951 149.365596 -0.000004 0.000002 -10.450894 1200.013639 -177.413194 1258.327499 0.000005 0.000007 -12.539194 117.453681 184.686048 -213.022289 2.442596 -0.601401 -2.767504 125.430550 -7.795207 94.350901 -0.000002 -0.000002 -17.033703 -480.567684 16.873795 482.258238 0.000002 0.000002 -19.318804 -179.011649 137.876439 632.881012 -3.126198 -0.601398 -2.283504 -138.761959 -14.538689 -99.575204 -0.000001 -0.000000 -16.919397 629.314724 3.558196 -232.040050 -0.000002 -0.000005 -18.035896 464.243149 39.616108 -184.907387
24.140102 39.616104 8.967701 -3.297703 4.880857 -4.233254 -0.128499 0.160394 6.566006 3.831084 -2.338812 3.336020 0.000001 -0.000002 3.554806 -3.031742 -11.193371 -1.847138 -0.000001 -0.000003 8.267999 3.360167 -0.475583 3.208686 -0.000001 -0.000004 2.173898 1.092197 -5.850045 0.400172 2.057500 0.117610 5.946302 5.178307 -11.455814 4.819896 4.957693 0.000008 0.000002 -28.838835 -16.118768 -110.990301 0.000007 -0.000001 -8.465494 1225.601167 -175.435472 833.440446 -0.000006 0.000008 -14.594898 -932.178317 -16.654730 -349.115885 -3.048502 -0.728800 6.604103 28.081431 5.740884 7.272619 -3.710303 -0.000002 -0.000009 27.476318 -18.548946 149.202409 0.000001 0.000000 -10.450893 1199.461760 -177.484842 1258.407494 0.000002 0.000007 -12.539193 117.764810 184.605178 -212.934576 2.442595 -0.601405 -2.767506 125.420482 -7.859873 94.328649 -0.000002 -0.000003 -17.033705 -480.496377 16.843180 482.256708 0.000007 0.000001 -19.318802 -178.955259 137.876698 632.840632 -3.126199 -0.601407 -2.283498 -138.734720 -14.492814 -99.552350 -0.000003 -0.000007 -16.919397 629.617493 3.305836 -232.137421 -0.000001 -0.000002 -18.035898 464.952779 39.623707 -184.789662
24.140600 39.621510 8.962994 -3.306155 4.867838 -4.226713 -0.128500 0.160395 6.566007 3.829034 -2.327102 3.369811 -0.000001 -0.000005 3.554805 -3.065617 -11.174296 -1.850980 0.000001 -0.000004 8.267999 3.398458 -0.704019 3.159021 -0.000001 0.000002 2.173896 1.107677 -5.916268 0.416819 2.057504 0.117595 5.946301 5.192057 -11.541068 4.676021 4.957697 0.000003 0.000002 -28.769720 -16.169102 -110.900545 0.000007 -0.000002 -8.465497 1225.868801 -175.266998 833.894517 -0.000009 -0.000006 -14.594892 -932.258093 -16.750160 -349.138042 -3.048503 -0.728807 6.604098 27.884343 5.425690 7.093904 -3.710293 0.000003 -0.000009 27.536654 -18.297527 148.984485 -0.000002 0.000002 -10.450897 1199.137736 -177.574782 1258.498309 0.000004 -0.000000 -12.539200 117.869995 184.601503 -212.847997 2.442595 -0.601399 -2.767503 125.405866 -7.921959 94.319585 -0.000001 0.000002 -17.033707 -480.427747 16.835313 482.252337 0.000007 0.000003 -19.318806 -178.917420 137.876207 632.809104 -3.126200 -0.601400 -2.283497 -138.719667 -14.422505 -99.558429 -0.000003 0.000000 -16.919403 629.755517 3.222140 -232.159660 0.000004 -0.000005 -18.035900 465.135063 39.633528 -184.761712
24.141300 39.623802 8.961292 -3.314559 4.865513 -4.230184 -0.128496 0.160407 6.566001 3.827995 -2.326678 3.414689 0.000000 0.000001 3.554805 -3.247122 -11.168692 -1.661353 0.000001 -0.000002 8.268000 3.570087 -0.873952 2.877735 -0.000001 -0.000001 2.173895 1.103480 -5.972779 0.423307 2.057503 0.117601 5.946305 5.315350 -11.649045 4.264940 4.957690 0.000006 0.000000 -28.690220 -16.211958 -110.765130 -0.000002 0.000002 -8.465495 1226.356203 -174.710911 834.357987 -0.000003 -0.000004 -14.594903 -932.388359 -17.003361 -348.301918 -3.048502 -0.728803 6.604105 27.831387 4.990631 6.790633 -3.710296 0.000004 -0.000010 27.414474 -18.051937 148.564961 -0.000002 0.000001 -10.450894 1198.974685 -177.526001 1258.500494 -0.000002 0.000011 -12.539189 117.617183 184.626188 -212.583709 2.442599 -0.601396 -2.767506 125.423638 -7.829586 94.325008 -0.000003 -0.000005 -17.033703 -480.510966 16.819387 482.274357 0.000001 0.000000 -19.318798 -178.895263 137.878829 632.813366 -3.126197 -0.601396 -2.283503 -138.709421 -14.480366 -99.541490 0.000001 -0.000000 -16.919401 629.997251 2.943966 -232.274680 -0.000002 -0.000004 -18.035896 465.963811 39.640229 -184.630040
24.142601 39.626308 8.958298 -3.320906 4.871276 -4.240094 -0.128501 0.160401 6.566007 3.826746 -2.344931 3.464258 -0.000001 0.000006 3.554812 -3.240354 -11.144791 -1.691891 0.000001 0.000001 8.267999 3.563481 -1.028088 2.860918 -0.000000 0.000005 2.173899 1.102165 -6.030079 0.429604 2.057503 0.117601 5.946304 5.286381 -11.744416 4.127023 4.957698 0.000008 -0.000001 -28.586398 -16.215626 -110.641743 0.000005 0.000003 -8.465508 1226.756616 -174.458591 834.819380 -0.000007 -0.000000 -14.594893 -932.550862 -17.000927 -348.295525 -3.048499 -0.728800 6.604102 27.659239 4.736126 6.746272 -3.710299 -0.000000 -0.000006 27.259215 -17.918757 148.167526 0.000004 -0.000005 -10.450896 1198.789888 -177.477343 1258.519619 0.000003 0.000011 -12.539188 117.388521 184.600192 -212.487199 2.442591 -0.601399 -2.767499 125.430919 -7.774050 94.339044 -0.000004 -0.000001 -17.033707 -480.551619 16.822679 482.286979 0.000005 -0.000000 -19.318802 -178.883296 137.880674 632.818884 -3.126196 -0.601400 -2.283497 -138.709927 -14.510838 -99.542241 -0.000003 -0.000003 -16.919397 630.291824 2.628565 -232.396749 -0.000000 -0.000002 -18.035896 466.878127 39.656492 -184.491128
24.144701 39.629108 8.955200 -3.327056 4.880143 -4.253118 -0.128503 0.160397 6.566000 3.828980 -2.373481 3.503729 0.000000 0.000000 3.554806 -3.231669 -11.119931 -1.703157 0.000002 0.000008 8.267994 3.559175 -1.188039 2.845459 -0.000000 0.000005 2.173896 1.085071 -6.100221 0.422324 2.057502 0.117610 5.946301 5.535252 -11.988737 4.240225 4.957694 0.000003 0.000000 -28.617178 -15.944812 -110.459397 0.000002 0.000001 -8.465505 1227.062609 -174.350414 835.084500 -0.000004 -0.000006 -14.594892 -932.460704 -17.014671 -348.440871 -3.048500 -0.728790 6.604096 27.584848 4.571289 6.791219 -3.710300 0.000004 -0.000006 27.056761 -17.949964 147.714903 0.000001 -0.000001 -10.450891 1198.585856 -177.415844 1258.527924 0.000005 0.000002 -12.539196 117.042818 184.483833 -212.483907 2.442599 -0.601403 -2.767510 125.430373 -7.746294 94.351980 -0.000004 -0.000003 -17.033709 -480.559433 16.832941 482.286925 0.000004 -0.000001 -19.318798 -178.876070 137.882040 632.825769 -3.126200 -0.601408 -2.283504 -138.710419 -14.521257 -99.543744 -0.000003 0.000000 -16.919401 630.652184 2.267514 -232.536249 0.000001 -0.000005 -18.035898 467.929157 39.676057 -184.335345
24.147297 39.632904 8.951603 -3.334919 4.891944 -4.270501 -0.128500 0.160397 6.566001 3.835067 -2.413423 3.542012 -0.000000 0.000005 3.554800 -3.223909 -11.089950 -1.706587 -0.000003 0.000004 8.267996 3.555978 -1.381399 2.827212 0.000003 0.000004 2.173898 1.064277 -6.192406 0.413906 2.057503 0.117604 5.946308 5.743636 -12.190024 4.319804 4.957694 -0.000001 0.000008 -28.638223 -15.832339 -110.273343 -0.000001 0.000007 -8.465502 1227.330789 -174.029081 835.350932 0.000000 -0.000002 -14.594899 -932.673041 -17.100202 -348.522560 -3.048503 -0.728801 6.604101 27.609266 4.521408 6.892786 -3.710298 -0.000001 -0.000007 26.723375 -18.116669 147.244877 0.000001 -0.000004 -10.450889 1198.387071 -177.319128 1258.475250 -0.000001 -0.000004 -12.539201 117.035647 184.631857 -212.357999 2.442594 -0.601400 -2.767498 125.424430 -7.739346 94.364555 -0.000000 -0.000003 -17.033710 -480.542931 16.852867 482.278564 0.000007 0.000004 -19.318804 -178.875264 137.882777 632.832108 -3.126200 -0.601403 -2.283499 -138.714558 -14.476827 -99.561762 -0.000001 -0.000003 -16.919394 631.023419 1.939175 -232.647882 0.000002 -0.000001 -18.035898 468.860139 39.697527 -184.202907
